
<svg xmlns="http://www.w3.org/2000/svg" viewBox="0 0 380 580" preserveAspectRatio="none">
  <path
    d="
      M5 5
      C25 -2, 45 10, 65 5
      C85 0, 105 10, 125 5
      C145 -2, 165 10, 185 5
      C205 0, 225 10, 245 5
      C265 -2, 285 10, 305 5
      C325 0, 345 10, 375 5

      C382 25, 370 45, 375 65
      C380 85, 370 105, 375 125
      C382 145, 370 165, 375 185
      C380 205, 370 225, 375 245
      C382 265, 370 285, 375 305
      C380 325, 370 345, 375 365
      C382 385, 370 405, 375 425
      C380 445, 370 465, 375 485
      C382 505, 370 525, 375 575

      C355 582, 335 570, 315 575
      C295 580, 275 570, 255 575
      C235 582, 215 570, 195 575
      C175 580, 155 570, 135 575
      C115 582, 95 570, 75 575
      C55 580, 35 570, 5 575

      C-2 555, 10 535, 5 515
      C0 495, 10 475, 5 455
      C-2 435, 10 415, 5 395
      C0 375, 10 355, 5 335
      C-2 315, 10 295, 5 275
      C0 255, 10 235, 5 215
      C-2 195, 10 175, 5 155
      C0 135, 10 115, 5 95
      C-2 75, 10 55, 5 35
      C0 20, 10 10, 5 5
      Z
    "
    fill="none"
    stroke="#c9c9c9"
    stroke-opacity="0.7"
    stroke-width="1"
    stroke-linejoin="miter"
    stroke-miterlimit="1"
    vector-effect="non-scaling-stroke"
  />
</svg>